# xmcd
#
# Track frame offsets: 
#        150
#        8923
#        18714
#        34531
#        46653
#        59427
#        74399
#        84344
#        100257
#        113515
#        125732
#        136692
#        146107
#        155173
#        165748
#
# Disc length: 2337 seconds
#
# Revision: 0
# Processed by: cddbd v1.5.2PL0 Copyright (c) Steve Scherf et al.
# Submitted via: ExactAudioCopyFreeDBPlugin 1.0
#
DISCID=c7091f0f
DTITLE=Megan Lynch Chowning and Adam Hurt - Inside Out
DYEAR=2016
DGENRE=Bluegrass
TTITLE0=Tennessee Breakdown
TTITLE1=Cherry River Rag
TTITLE2=Oyster River Hornpipe
TTITLE3=Blue Eagle
TTITLE4=Stumptown Stomp
TTITLE5=Dora Dean
TTITLE6=Brandywine
TTITLE7=Grigsby's Hornpipe
TTITLE8=There's Brown Skin Gal Down the Road Somewhere
TTITLE9=Bumblebee in the Gourdvine
TTITLE10=Tugboat
TTITLE11=Natchez Under the Hill
TTITLE12=Brickyard Joe
TTITLE13=East Tennessee Blues
TTITLE14=Cowhide Boots
EXTD=
EXTT0=
EXTT1=
EXTT2=
EXTT3=
EXTT4=
EXTT5=
EXTT6=
EXTT7=
EXTT8=
EXTT9=
EXTT10=
EXTT11=
EXTT12=
EXTT13=
EXTT14=
PLAYORDER=
